<svg width="28" height="29" viewBox="0 0 28 29" fill="none" xmlns="http://www.w3.org/2000/svg">
<path d="M3.5 7.5H5.83333H24.5" stroke="#989898" stroke-width="2" stroke-linecap="round" stroke-linejoin="round"/>
<path d="M22.1663 7.50065V23.834C22.1663 24.4528 21.9205 25.0463 21.4829 25.4839C21.0453 25.9215 20.4518 26.1673 19.833 26.1673H8.16634C7.5475 26.1673 6.95401 25.9215 6.51643 25.4839C6.07884 25.0463 5.83301 24.4528 5.83301 23.834V7.50065M9.33301 7.50065V5.16732C9.33301 4.54848 9.57884 3.95499 10.0164 3.5174C10.454 3.07982 11.0475 2.83398 11.6663 2.83398H16.333C16.9518 2.83398 17.5453 3.07982 17.9829 3.5174C18.4205 3.95499 18.6663 4.54848 18.6663 5.16732V7.50065" stroke="#989898" stroke-width="2" stroke-linecap="round" stroke-linejoin="round"/>
<path d="M11.667 13.334V20.334" stroke="#989898" stroke-width="2" stroke-linecap="round" stroke-linejoin="round"/>
<path d="M16.333 13.334V20.334" stroke="#989898" stroke-width="2" stroke-linecap="round" stroke-linejoin="round"/>
</svg>
